<svg width="23" height="23" viewBox="0 0 23 23" fill="none" xmlns="http://www.w3.org/2000/svg">
<path d="M11.129 2.00535C14.1005 2.00535 14.4524 2.01647 15.6262 2.07C16.332 2.07864 17.0311 2.20823 17.693 2.45316C18.1731 2.63829 18.6091 2.9219 18.9729 3.28571C19.3367 3.64953 19.6203 4.0855 19.8054 4.56555C20.0504 5.22752 20.18 5.92659 20.1886 6.63237C20.2416 7.80622 20.2532 8.15811 20.2532 11.1296C20.2532 14.101 20.2421 14.4529 20.1886 15.6267C20.18 16.3325 20.0504 17.0316 19.8054 17.6936C19.6203 18.1736 19.3367 18.6096 18.9729 18.9734C18.6091 19.3372 18.1731 19.6208 17.693 19.806C17.0311 20.0509 16.332 20.1805 15.6262 20.1891C14.4529 20.2421 14.101 20.2538 11.129 20.2538C8.15705 20.2538 7.80516 20.2426 6.63184 20.1891C5.92607 20.1805 5.227 20.0509 4.56502 19.806C4.08497 19.6208 3.649 19.3372 3.28518 18.9734C2.92137 18.6096 2.63776 18.1736 2.45263 17.6936C2.2077 17.0316 2.07811 16.3325 2.06947 15.6267C2.01647 14.4529 2.00482 14.101 2.00482 11.1296C2.00482 8.15811 2.01594 7.80622 2.06947 6.63237C2.07811 5.92659 2.2077 5.22752 2.45263 4.56555C2.63776 4.0855 2.92137 3.64953 3.28518 3.28571C3.649 2.9219 4.08497 2.63829 4.56502 2.45316C5.227 2.20823 5.92607 2.07864 6.63184 2.07C7.80569 2.017 8.15758 2.00535 11.129 2.00535ZM11.129 0C8.10829 0 7.72779 0.0127189 6.54069 0.0667741C5.61701 0.0851465 4.70313 0.260038 3.83793 0.584009C3.09572 0.863648 2.42348 1.30187 1.86809 1.86809C1.30135 2.42368 0.862761 3.09631 0.582949 3.83899C0.258978 4.70419 0.0840867 5.61807 0.0657143 6.54175C0.0127189 7.72779 0 8.10829 0 11.129C0 14.1498 0.0127189 14.5303 0.0667741 15.7174C0.0851465 16.6411 0.260038 17.5549 0.584009 18.4201C0.863511 19.1627 1.30174 19.8353 1.86809 20.391C2.42378 20.9574 3.0964 21.3956 3.83899 21.6751C4.70419 21.9991 5.61807 22.174 6.54175 22.1923C7.72885 22.2453 8.10776 22.2591 11.1301 22.2591C14.1524 22.2591 14.5313 22.2464 15.7184 22.1923C16.6421 22.174 17.556 21.9991 18.4212 21.6751C19.1603 21.3886 19.8314 20.9511 20.3917 20.3904C20.952 19.8297 21.3891 19.1583 21.6751 18.4191C21.9991 17.5539 22.174 16.64 22.1923 15.7163C22.2453 14.5303 22.2581 14.1498 22.2581 11.129C22.2581 8.10829 22.2453 7.72779 22.1913 6.54069C22.1729 5.61701 21.998 4.70313 21.6741 3.83792C21.3946 3.09534 20.9563 2.42272 20.39 1.86703C19.8343 1.30068 19.1617 0.862451 18.4191 0.582949C17.5539 0.258978 16.64 0.0840867 15.7163 0.0657143C14.5303 0.0127189 14.1498 0 11.129 0Z" fill="white"/>
<path d="M11.133 5.41406C10.0027 5.41406 8.89773 5.74924 7.9579 6.37722C7.01807 7.00519 6.28556 7.89776 5.853 8.94204C5.42045 9.98632 5.30727 11.1354 5.52778 12.244C5.7483 13.3526 6.2926 14.371 7.09186 15.1702C7.89112 15.9695 8.90944 16.5138 10.018 16.7343C11.1267 16.9548 12.2758 16.8416 13.32 16.4091C14.3643 15.9765 15.2569 15.244 15.8849 14.3042C16.5128 13.3643 16.848 12.2594 16.848 11.1291C16.848 9.61337 16.2459 8.15973 15.1741 7.08795C14.1023 6.01618 12.6487 5.41406 11.133 5.41406ZM11.133 14.8388C10.3993 14.8388 9.68206 14.6212 9.07201 14.2136C8.46195 13.8059 7.98648 13.2266 7.7057 12.5487C7.42492 11.8709 7.35146 11.125 7.4946 10.4054C7.63774 9.68576 7.99105 9.02475 8.50986 8.50595C9.02866 7.98714 9.68966 7.63383 10.4093 7.49069C11.1289 7.34755 11.8748 7.42101 12.5526 7.70179C13.2305 7.98257 13.8099 8.45805 14.2175 9.0681C14.6251 9.67815 14.8427 10.3954 14.8427 11.1291C14.8427 12.113 14.4518 13.0565 13.7561 13.7522C13.0604 14.4479 12.1169 14.8388 11.133 14.8388Z" fill="white"/>
<path d="M17.0699 6.52448C17.8074 6.52448 18.4053 5.92657 18.4053 5.189C18.4053 4.45143 17.8074 3.85352 17.0699 3.85352C16.3323 3.85352 15.7344 4.45143 15.7344 5.189C15.7344 5.92657 16.3323 6.52448 17.0699 6.52448Z" fill="white"/>
</svg>
