<svg width="16" height="16" viewBox="0 0 16 16" fill="none" xmlns="http://www.w3.org/2000/svg">
<path d="M14.2902 1.72197C13.9568 1.37972 13.4632 1.25221 13.003 1.38643L2.27198 4.507C1.78645 4.64189 1.4423 5.02911 1.3496 5.52102C1.25489 6.02165 1.5857 6.65718 2.01787 6.92293L5.37325 8.98519C5.71739 9.19658 6.16157 9.14357 6.44635 8.85634L10.2886 4.99019C10.482 4.78886 10.8021 4.78886 10.9955 4.99019C11.189 5.1848 11.189 5.50021 10.9955 5.70154L7.14664 9.56837C6.86119 9.85492 6.80783 10.3012 7.01792 10.6475L9.06809 14.0365C9.30819 14.4391 9.72169 14.6673 10.1752 14.6673C10.2286 14.6673 10.2886 14.6673 10.3419 14.6606C10.8622 14.5935 11.2757 14.2378 11.4291 13.7345L14.6104 3.01718C14.7504 2.56084 14.6237 2.06423 14.2902 1.72197Z" fill="white"/>
</svg>
